HIERARCHY
ROOT Hips
{
	OFFSET 0.000000 100.481300 0.000000
	CHANNELS 6 Xposition Yposition Zposition Xrotation Yrotation Zrotation 
	JOINT Spine
	{
		OFFSET -0.279200 12.230698 -2.892100
		CHANNELS 3 Xrotation Yrotation Zrotation
		JOINT Spine1
		{
			OFFSET -0.232667 10.192268 -1.242267
			CHANNELS 3 Xrotation Yrotation Zrotation
			JOINT Spine1_split
			{
				OFFSET -0.232667 10.192268 -1.242267
				CHANNELS 3 Xrotation Yrotation Zrotation
				JOINT Spine2
				{
					OFFSET -0.232667 10.192268 -1.242267
					CHANNELS 3 Xrotation Yrotation Zrotation
					JOINT Neck
					{
						OFFSET -0.418800 17.814194 8.416900
						CHANNELS 3 Xrotation Yrotation Zrotation
						JOINT Head
						{
							OFFSET 0.000000 7.031097 3.806800
							CHANNELS 3 Xrotation Yrotation Zrotation
							JOINT HeadTop_End
							{
								OFFSET 0.000000 24.646606 12.978600
								CHANNELS 3 Xrotation Yrotation Zrotation
								End Site
								{
									OFFSET 0.000000 0.000000 0.000000
								}
							}
						}
					}
					JOINT LeftShoulder
					{
						OFFSET 8.476499 7.247704 -3.868750
						CHANNELS 3 Xrotation Yrotation Zrotation
						JOINT LeftShoulder_split
						{
							OFFSET 8.476499 7.247704 -3.868750
							CHANNELS 3 Xrotation Yrotation Zrotation
							JOINT LeftArm
							{
								OFFSET 9.308998 -2.777710 0.208600
								CHANNELS 3 Xrotation Yrotation Zrotation
								JOINT LeftForeArm
								{
									OFFSET 29.972298 0.000000 0.000000
									CHANNELS 3 Xrotation Yrotation Zrotation
									JOINT LeftHand
									{
										OFFSET 26.026505 0.000000 0.000000
										CHANNELS 3 Xrotation Yrotation Zrotation
										JOINT LeftHandThumb1
										{
											OFFSET 12.240501 -7.147949 9.207150
											CHANNELS 3 Xrotation Yrotation Zrotation
											JOINT LeftHandThumb2
											{
												OFFSET 4.138618 -2.389435 2.389433
												CHANNELS 3 Xrotation Yrotation Zrotation
												JOINT LeftHandThumb3
												{
													OFFSET 2.726913 -1.574387 1.574386
													CHANNELS 3 Xrotation Yrotation Zrotation
													JOINT LeftHandThumb4
													{
														OFFSET 3.941010 -2.275345 2.275342
														CHANNELS 3 Xrotation Yrotation Zrotation
														End Site
														{
															OFFSET 0.000000 0.000000 0.000000
														}
													}
												}
											}
										}
										JOINT LeftHandIndex1
										{
											OFFSET 24.424698 -1.985611 5.953459
											CHANNELS 3 Xrotation Yrotation Zrotation
											JOINT LeftHandIndex2
											{
												OFFSET 6.426697 0.000000 0.000000
												CHANNELS 3 Xrotation Yrotation Zrotation
												JOINT LeftHandIndex3
												{
													OFFSET 5.337898 0.000000 0.000000
													CHANNELS 3 Xrotation Yrotation Zrotation
													JOINT LeftHandIndex4
													{
														OFFSET 4.409401 0.000000 0.000000
														CHANNELS 3 Xrotation Yrotation Zrotation
														End Site
														{
															OFFSET 0.000000 0.000000 0.000000
														}
													}
												}
											}
										}
										JOINT LeftHandMiddle1
										{
											OFFSET 23.810104 0.000000 0.000000
											CHANNELS 3 Xrotation Yrotation Zrotation
											JOINT LeftHandMiddle2
											{
												OFFSET 7.176498 0.000000 0.000000
												CHANNELS 3 Xrotation Yrotation Zrotation
												JOINT LeftHandMiddle3
												{
													OFFSET 6.774902 0.000000 0.000000
													CHANNELS 3 Xrotation Yrotation Zrotation
													JOINT LeftHandMiddle4
													{
														OFFSET 5.403328 0.000000 0.000000
														CHANNELS 3 Xrotation Yrotation Zrotation
														End Site
														{
															OFFSET 0.000000 0.000000 0.000000
														}
													}
												}
											}
										}
										JOINT LeftHandRing1
										{
											OFFSET 22.908401 -0.839279 -6.020567
											CHANNELS 3 Xrotation Yrotation Zrotation
											JOINT LeftHandRing2
											{
												OFFSET 6.337502 0.000000 0.000000
												CHANNELS 3 Xrotation Yrotation Zrotation
												JOINT LeftHandRing3
												{
													OFFSET 5.779297 0.000000 0.000000
													CHANNELS 3 Xrotation Yrotation Zrotation
													JOINT LeftHandRing4
													{
														OFFSET 4.965698 0.000000 0.000000
														CHANNELS 3 Xrotation Yrotation Zrotation
														End Site
														{
															OFFSET 0.000000 0.000000 0.000000
														}
													}
												}
											}
										}
										JOINT LeftHandPinky1
										{
											OFFSET 20.037003 -1.530319 -10.950146
											CHANNELS 3 Xrotation Yrotation Zrotation
											JOINT LeftHandPinky2
											{
												OFFSET 5.254700 0.000000 0.000000
												CHANNELS 3 Xrotation Yrotation Zrotation
												JOINT LeftHandPinky3
												{
													OFFSET 4.810204 0.000000 0.000000
													CHANNELS 3 Xrotation Yrotation Zrotation
													JOINT LeftHandPinky4
													{
														OFFSET 3.647202 0.000000 0.000000
														CHANNELS 3 Xrotation Yrotation Zrotation
														End Site
														{
															OFFSET 0.000000 0.000000 0.000000
														}
													}
												}
											}
										}
									}
								}
							}
						}
					}
					JOINT RightShoulder
					{
						OFFSET -7.570500 7.247704 -3.868750
						CHANNELS 3 Xrotation Yrotation Zrotation
						JOINT RightShoulder_split
						{
							OFFSET -7.570500 7.247704 -3.868750
							CHANNELS 3 Xrotation Yrotation Zrotation
							JOINT RightArm
							{
								OFFSET -9.308998 -2.777710 0.208500
								CHANNELS 3 Xrotation Yrotation Zrotation
								JOINT RightForeArm
								{
									OFFSET -29.972300 0.000000 0.000000
									CHANNELS 3 Xrotation Yrotation Zrotation
									JOINT RightHand
									{
										OFFSET -26.026505 0.000000 0.000000
										CHANNELS 3 Xrotation Yrotation Zrotation
										JOINT RightHandThumb1
										{
											OFFSET -12.240601 -7.148026 9.207092
											CHANNELS 3 Xrotation Yrotation Zrotation
											JOINT RightHandThumb2
											{
												OFFSET -4.138618 -2.389435 2.389433
												CHANNELS 3 Xrotation Yrotation Zrotation
												JOINT RightHandThumb3
												{
													OFFSET -2.726974 -1.574417 1.574421
													CHANNELS 3 Xrotation Yrotation Zrotation
													JOINT RightHandThumb4
													{
														OFFSET -3.941010 -2.275345 2.275343
														CHANNELS 3 Xrotation Yrotation Zrotation
														End Site
														{
															OFFSET 0.000000 0.000000 0.000000
														}
													}
												}
											}
										}
										JOINT RightHandIndex1
										{
											OFFSET -24.424698 -1.985657 5.953444
											CHANNELS 3 Xrotation Yrotation Zrotation
											JOINT RightHandIndex2
											{
												OFFSET -6.426697 0.000000 0.000000
												CHANNELS 3 Xrotation Yrotation Zrotation
												JOINT RightHandIndex3
												{
													OFFSET -5.337898 0.000000 0.000000
													CHANNELS 3 Xrotation Yrotation Zrotation
													JOINT RightHandIndex4
													{
														OFFSET -4.409401 0.000000 0.000000
														CHANNELS 3 Xrotation Yrotation Zrotation
														End Site
														{
															OFFSET 0.000000 0.000000 0.000000
														}
													}
												}
											}
										}
										JOINT RightHandMiddle1
										{
											OFFSET -23.810097 0.000000 0.000000
											CHANNELS 3 Xrotation Yrotation Zrotation
											JOINT RightHandMiddle2
											{
												OFFSET -7.176498 0.000000 0.000000
												CHANNELS 3 Xrotation Yrotation Zrotation
												JOINT RightHandMiddle3
												{
													OFFSET -6.774902 0.000000 0.000000
													CHANNELS 3 Xrotation Yrotation Zrotation
													JOINT RightHandMiddle4
													{
														OFFSET -5.403328 0.000000 0.000000
														CHANNELS 3 Xrotation Yrotation Zrotation
														End Site
														{
															OFFSET 0.000000 0.000000 0.000000
														}
													}
												}
											}
										}
										JOINT RightHandRing1
										{
											OFFSET -22.908302 -0.839325 -6.020576
											CHANNELS 3 Xrotation Yrotation Zrotation
											JOINT RightHandRing2
											{
												OFFSET -6.337502 0.000000 0.000000
												CHANNELS 3 Xrotation Yrotation Zrotation
												JOINT RightHandRing3
												{
													OFFSET -5.779297 0.000000 0.000000
													CHANNELS 3 Xrotation Yrotation Zrotation
													JOINT RightHandRing4
													{
														OFFSET -4.965698 0.000000 0.000000
														CHANNELS 3 Xrotation Yrotation Zrotation
														End Site
														{
															OFFSET 0.000000 0.000000 0.000000
														}
													}
												}
											}
										}
										JOINT RightHandPinky1
										{
											OFFSET -20.037003 -1.530334 -10.950259
											CHANNELS 3 Xrotation Yrotation Zrotation
											JOINT RightHandPinky2
											{
												OFFSET -5.254700 0.000000 0.000000
												CHANNELS 3 Xrotation Yrotation Zrotation
												JOINT RightHandPinky3
												{
													OFFSET -4.810204 0.000000 0.000000
													CHANNELS 3 Xrotation Yrotation Zrotation
													JOINT RightHandPinky4
													{
														OFFSET -3.647202 0.000000 0.000000
														CHANNELS 3 Xrotation Yrotation Zrotation
														End Site
														{
															OFFSET 0.000000 0.000000 0.000000
														}
													}
												}
											}
										}
									}
								}
							}
						}
					}
				}
			}
		}
	}
	JOINT LeftUpLeg
	{
		OFFSET 15.427100 -6.655098 0.678600
		CHANNELS 3 Xrotation Yrotation Zrotation
		JOINT LeftLeg
		{
			OFFSET 4.081073 -39.591068 13.024000
			CHANNELS 3 Xrotation Yrotation Zrotation
			JOINT LeftFoot
			{
				OFFSET -4.081074 -37.707932 -15.979700
				CHANNELS 3 Xrotation Yrotation Zrotation
				JOINT LeftToeBase
				{
					OFFSET 5.346399 -15.068900 20.645000
					CHANNELS 3 Xrotation Yrotation Zrotation
					JOINT LeftToe_End
					{
						OFFSET 2.754700 0.931300 11.300900
						CHANNELS 3 Xrotation Yrotation Zrotation
						End Site
						{
							OFFSET 0.000000 0.000000 0.000000
						}
					}
				}
			}
		}
	}
	JOINT RightUpLeg
	{
		OFFSET -15.569500 -6.655098 0.678600
		CHANNELS 3 Xrotation Yrotation Zrotation
		JOINT RightLeg
		{
			OFFSET -4.081825 -39.591045 13.023800
			CHANNELS 3 Xrotation Yrotation Zrotation
			JOINT RightFoot
			{
				OFFSET 4.081824 -37.707954 -15.979600
				CHANNELS 3 Xrotation Yrotation Zrotation
				JOINT RightToeBase
				{
					OFFSET -5.346400 -15.068900 20.645000
					CHANNELS 3 Xrotation Yrotation Zrotation
					JOINT RightToe_End
					{
						OFFSET -2.754700 0.931300 11.300900
						CHANNELS 3 Xrotation Yrotation Zrotation
						End Site
						{
							OFFSET 0.000000 0.000000 0.000000
						}
					}
				}
			}
		}
	}
}
MOTION
Frames: 5
Frame Time: 0.016667
-248.192459 95.470284 -13.469900 -0.249580 -1.927911 0.416168 1.359990 0.281098 0.238756 1.526172 0.604860 0.276834 0.000000 0.000000 0.000000 1.528456 0.599782 0.275481 2.397564 -0.807861 -0.311582 -5.722448 -4.753666 1.062652 0.000000 -0.000000 0.000000 0.680081 -3.439145 -11.860527 0.000000 0.000000 0.000000 7.201841 -16.916695 -65.380244 -0.000002 -20.680384 -0.000039 -11.810931 -9.230392 8.456934 -4.796947 3.051763 4.543934 15.168950 25.440078 5.455586 -14.255088 -9.285801 7.920774 -0.000000 -0.000000 -0.000000 -1.456312 0.275385 -37.796730 1.499741 3.915410 -41.904563 0.511591 2.396172 -24.100623 -0.000001 0.000000 -0.000000 -0.989839 3.521584 -42.884176 1.912719 4.330589 -47.643722 1.341269 3.731684 -39.528326 -0.000001 -0.000000 0.000002 -1.278583 4.236146 -52.701309 2.281787 4.639299 -52.360688 0.980801 3.246670 -33.610729 -0.000001 -0.000001 0.000000 0.169514 5.868132 -58.032402 2.290184 4.645744 -52.464421 1.860985 4.282975 -46.954740 -0.000001 -0.000001 -0.000001 0.475741 8.188370 13.746940 0.000000 0.000000 0.000000 13.305185 7.816369 61.653324 -0.000003 31.239048 -0.000005 -9.883378 4.315944 -8.466866 -3.629456 2.305973 -13.175376 14.001472 -30.265401 1.170802 -9.731812 6.667336 -15.553707 0.000000 0.000000 -0.000002 -0.431367 6.502034 20.288751 1.739992 -3.631895 51.185267 0.337705 -1.742752 21.931620 -0.000001 -0.000000 -0.000000 -1.795538 -0.980958 34.164753 1.353503 -3.284352 44.784584 0.568539 -2.231763 28.580669 0.000000 0.000000 -0.000000 -1.346442 -2.158753 38.580433 1.794973 -3.675368 52.048159 0.466655 -2.033756 25.843528 0.000001 -0.000001 -0.000001 -0.503791 -3.831118 44.436746 1.111614 -3.021579 40.388889 0.537328 -2.173539 27.768745 -0.000002 0.000003 -0.000001 -12.874004 15.400874 9.526610 14.345305 -9.350215 0.147247 -4.384459 -11.697834 -6.587888 1.635541 -0.000004 0.000000 0.000000 -0.000000 -0.000000 -4.682796 -8.845438 -9.514603 14.556445 0.278609 3.637975 -10.085450 -2.808336 4.645091 -0.140969 -0.000003 -0.000001 -0.000000 0.000000 0.000000 
-248.172668 95.428543 -13.455451 -0.220837 -1.923949 0.418780 1.369013 0.284502 0.241387 1.531444 0.606262 0.276090 0.000000 0.000000 0.000000 1.533719 0.600987 0.273807 2.333150 -0.807860 -0.344317 -5.803872 -4.814683 1.134472 0.000000 0.000001 0.000000 0.675227 -3.107452 -11.968064 0.000000 0.000000 0.000000 6.895875 -17.408926 -64.965597 0.000007 -21.235278 0.000017 -11.562176 -8.704120 7.746375 -5.002430 2.937006 4.426670 15.317502 25.259592 5.072966 -14.331663 -9.984858 7.786020 -0.000000 0.000001 -0.000003 -1.570712 0.351089 -38.821142 1.555515 3.976534 -42.715020 0.531087 2.439235 -24.562682 -0.000001 -0.000001 -0.000000 -1.061511 3.536022 -43.793660 1.991622 4.401018 -48.680131 1.384990 3.783924 -40.195445 0.000000 0.000001 -0.000001 -1.391746 4.262040 -53.784410 2.370279 4.705988 -53.446865 1.006431 3.284839 -34.060787 0.000001 -0.000001 0.000001 0.125758 5.897886 -59.090883 2.390679 4.720997 -53.695156 1.939645 4.354906 -47.999206 0.000000 -0.000003 -0.000002 0.473369 8.054810 13.883107 0.000000 0.000000 0.000000 13.604480 8.269874 60.830867 0.000013 32.298971 0.000003 -9.651783 5.375920 -9.192773 -3.762564 2.514896 -13.410406 14.089932 -30.154609 1.745266 -9.526762 7.265933 -15.719062 0.000000 0.000001 0.000001 -0.560423 6.702918 20.635248 1.816303 -3.691860 52.380007 0.349146 -1.770904 22.304867 0.000001 -0.000002 0.000001 -1.907310 -0.903901 34.752112 1.406565 -3.336873 45.703292 0.577229 -2.247631 28.803215 -0.000002 -0.000000 -0.000000 -1.442358 -2.098814 39.124632 1.864078 -3.728121 53.118487 0.471425 -2.043581 25.977786 -0.000000 0.000000 -0.000000 -0.565025 -3.792869 44.974634 1.150906 -3.067086 41.128472 0.547492 -2.192717 28.035507 -0.000000 0.000001 0.000001 -12.945225 15.396758 9.522833 14.456121 -9.354341 0.126674 -4.460499 -11.693623 -6.483453 1.669324 0.000003 0.000002 0.000000 -0.000000 -0.000000 -4.767540 -8.887995 -9.552534 14.641929 0.343171 3.658711 -10.080244 -2.807440 4.639338 -0.144627 -0.000003 -0.000000 0.000000 0.000001 -0.000000 
-248.145905 95.385674 -13.447156 -0.173524 -1.934668 0.422455 1.376623 0.296803 0.246840 1.534144 0.618928 0.275135 0.000000 0.000000 0.000000 1.536387 0.613600 0.273538 2.245560 -0.804274 -0.383274 -6.001869 -4.864039 1.193530 -0.000000 0.000000 -0.000000 0.674981 -2.709238 -11.957098 0.000000 0.000000 0.000000 6.658605 -17.652578 -64.530036 0.000001 -22.655393 -0.000007 -12.066289 -8.706390 7.052875 -5.209590 2.820758 4.307805 15.466332 25.076355 4.687926 -14.415300 -10.690218 7.638552 -0.000001 0.000000 -0.000002 -1.685203 0.430440 -39.850954 1.612453 4.037188 -43.529806 0.551010 2.482323 -25.026744 0.000000 0.000001 0.000000 -1.134793 3.553193 -44.707816 2.072241 4.470395 -49.722479 1.429546 3.835915 -40.865944 0.000000 0.000000 -0.000002 -1.507005 4.293129 -54.873101 2.460525 4.771350 -54.539358 1.032487 3.322985 -34.512751 -0.000000 0.000004 -0.000003 0.080640 5.930736 -60.154965 2.493376 4.794503 -54.933241 2.020063 4.425787 -49.049685 -0.000000 -0.000001 -0.000000 0.480196 7.824795 13.908639 0.000000 0.000000 0.000000 13.803065 8.765850 60.021237 -0.000004 33.727437 0.000010 -10.033477 6.711234 -10.260475 -3.896475 2.725659 -13.646561 14.178180 -30.041791 2.323875 -9.321203 7.870334 -15.885162 -0.000001 0.000000 -0.000000 -0.692420 6.904158 20.983501 1.894286 -3.750538 53.581567 0.360816 -1.799069 22.679522 -0.000003 -0.000003 -0.000001 -2.021846 -0.828655 35.342199 1.460754 -3.388813 46.627072 0.586002 -2.263505 29.026111 -0.000001 -0.000001 0.000000 -1.540404 -2.040406 39.671255 1.934563 -3.779874 54.194921 0.476226 -2.053381 26.111823 0.000001 -0.000001 -0.000002 -0.628031 -3.755679 45.514840 1.190971 -3.112321 41.871969 0.557763 -2.211889 28.302943 0.000000 -0.000001 0.000001 -13.037460 15.392357 9.521696 14.576730 -9.359990 0.099878 -4.556575 -11.669997 -6.376140 1.731775 0.000003 -0.000000 0.000000 0.000000 -0.000000 -4.884095 -8.906726 -9.588669 14.742808 0.400402 3.664641 -10.086730 -2.809566 4.646240 -0.157721 0.000006 0.000000 0.000000 0.000000 -0.000000 
-248.112671 95.357475 -13.449370 -0.124015 -1.957784 0.430347 1.384903 0.316043 0.250618 1.538205 0.645311 0.273751 0.000000 0.000000 0.000000 1.540386 0.640241 0.273648 2.156837 -0.796674 -0.417830 -6.316917 -4.882723 1.239700 0.000000 -0.000000 -0.000000 0.681320 -2.265466 -11.771149 0.000000 0.000000 0.000000 6.596426 -17.554466 -64.079947 -0.000006 -25.201805 -0.000008 -13.999460 -9.246300 6.718649 -5.417905 2.703401 4.187586 15.615088 24.890872 4.301407 -14.506101 -11.399967 7.478228 0.000001 0.000001 -0.000004 -1.799452 0.513319 -40.883778 1.670413 4.097192 -44.347076 0.571323 2.525342 -25.491757 0.000000 0.000001 0.000001 -1.209447 3.573135 -45.624571 2.154383 4.538522 -50.768386 1.474828 3.887533 -41.538318 -0.000001 0.000001 -0.000002 -1.623982 4.329481 -55.964938 2.552316 4.835197 -55.635579 1.058897 3.360996 -34.965610 -0.000001 -0.000002 0.000000 0.034371 5.966708 -61.222237 2.597996 4.866013 -56.175786 2.102046 4.495401 -50.103761 0.000001 -0.000003 0.000001 0.498075 7.530342 13.753908 0.000000 0.000000 0.000000 13.999233 9.313922 59.251973 -0.000001 35.758701 -0.000009 -11.394873 7.937364 -11.635045 -4.030875 2.937714 -13.883310 14.266076 -29.927396 2.905291 -9.115647 8.479041 -16.051687 -0.000000 0.000000 -0.000003 -0.827113 7.105290 21.332738 1.973748 -3.807759 54.787143 0.372704 -1.827206 23.054723 0.000003 -0.000000 -0.000000 -2.138904 -0.755401 35.933728 1.515945 -3.440027 47.553802 0.594832 -2.279336 29.248936 0.000001 0.000002 -0.000001 -1.640360 -1.983680 40.219063 2.006239 -3.830445 55.274979 0.481024 -2.063142 26.245413 -0.000002 -0.000001 -0.000000 -0.692655 -3.719679 46.056229 1.231748 -3.157141 42.617635 0.568143 -2.231029 28.570470 -0.000001 -0.000000 0.000001 -13.115679 15.388365 9.508778 14.668806 -9.363499 0.075546 -4.647883 -11.631381 -6.292960 1.732067 -0.000000 0.000001 -0.000000 -0.000000 0.000000 -4.997666 -8.910486 -9.622229 14.825175 0.448169 3.655000 -10.110253 -2.815118 4.663895 -0.173519 0.000003 -0.000000 0.000000 0.000002 0.000000 
-248.073669 95.357841 -13.466760 -0.089819 -1.986203 0.445368 1.393908 0.337298 0.251151 1.546219 0.684569 0.271725 0.000000 0.000000 0.000000 1.548310 0.680139 0.273104 2.096728 -0.783602 -0.438585 -6.737988 -4.857628 1.284561 0.000000 0.000000 -0.000000 0.693741 -1.794104 -11.392940 0.000000 0.000000 0.000000 6.723549 -17.114373 -63.661154 0.000003 -28.975165 0.000012 -17.456203 -10.025060 6.999989 -5.626870 2.585268 4.066302 15.763464 24.703715 3.914351 -14.604119 -12.112180 7.305132 -0.000001 0.000001 -0.000003 -1.913128 0.599611 -41.917253 1.729269 4.156393 -45.164930 0.591984 2.568179 -25.956703 0.000004 -0.000001 0.000001 -1.285246 3.595859 -46.541739 2.237850 4.605188 -51.815447 1.520741 3.938626 -42.211057 -0.000001 -0.000003 0.000001 -1.742265 4.371106 -57.057300 2.645420 4.897328 -56.733061 1.085577 3.398775 -35.418376 0.000001 0.000002 -0.000002 -0.012843 6.005790 -62.290239 2.704286 4.935315 -57.419925 2.185390 4.563571 -51.159042 -0.000001 0.000000 0.000000 0.524891 7.233769 13.397728 0.000000 0.000000 0.000000 14.296284 9.848243 58.493979 -0.000011 38.634521 0.000015 -13.750265 8.760571 -13.216024 -4.165483 3.150426 -14.120035 14.353472 -29.811812 3.488107 -8.910585 9.090575 -16.218201 0.000001 0.000000 -0.000000 -0.964244 7.305730 21.682255 2.054487 -3.863353 55.993993 0.384737 -1.855241 23.429671 0.000002 0.000002 0.000000 -2.258170 -0.684386 36.525311 1.572002 -3.490390 48.481356 0.603695 -2.295093 29.471197 -0.000002 0.000001 0.000000 -1.741980 -1.928812 40.766865 2.078939 -3.879709 56.356195 0.485814 -2.072819 26.378273 -0.000003 -0.000000 0.000001 -0.758709 -3.684960 46.597487 1.273133 -3.201462 43.363747 0.578574 -2.250081 28.837550 -0.000001 0.000001 -0.000000 -13.146425 15.381058 9.471329 14.693491 -9.362896 0.063002 -4.698794 -11.581082 -6.262585 1.695360 0.000002 0.000000 0.000000 0.000001 0.000000 -5.074677 -8.912085 -9.652119 14.857241 0.486137 3.630217 -10.148587 -2.822256 4.688476 -0.180895 0.000000 -0.000000 -0.000000 -0.000002 -0.000000 
